<?xml version="1.0" standalone="no"?>
<!DOCTYPE svg PUBLIC "-//W3C//DTD SVG 20010904//EN"
 "http://www.w3.org/TR/2001/REC-SVG-20010904/DTD/svg10.dtd">
<svg version="1.0" xmlns="http://www.w3.org/2000/svg"
 width="700.000000pt" height="700.000000pt" viewBox="0 0 700.000000 700.000000"
 preserveAspectRatio="xMidYMid meet">
<metadata>
Created by potrace 1.11, written by Peter Selinger 2001-2013
</metadata>
<g transform="translate(0.000000,700.000000) scale(0.100000,-0.100000)"
fill="#000000" stroke="none">
<path d="M2782 5453 c2 -8 -11 -94 -19 -120 -1 -7 -5 -19 -6 -25 -2 -7 -8 -35
-12 -63 -5 -27 -10 -52 -10 -55 -2 -5 -16 -74 -21 -100 -1 -8 -19 -96 -39
-195 -20 -99 -38 -189 -39 -200 -2 -11 -8 -45 -15 -75 -6 -30 -13 -64 -15 -75
-2 -11 -31 -155 -64 -320 -34 -165 -63 -311 -65 -325 -3 -14 -8 -36 -11 -50
-3 -14 -26 -124 -52 -245 -56 -269 -47 -228 -84 -370 -73 -281 -230 -493 -445
-599 -139 -69 -244 -91 -525 -111 -55 -4 -345 -18 -387 -19 -22 0 -27 -13 -49
-124 -3 -13 -22 -103 -44 -200 -47 -217 -81 -379 -96 -462 -8 -45 -9 -50 -29
-143 -9 -43 -14 -84 -11 -92 4 -11 33 -13 153 -9 185 5 165 3 252 21 262 52
566 284 770 586 47 71 60 93 155 270 48 87 77 120 101 111 9 -4 8 -26 -7 -97
-10 -51 -21 -108 -24 -127 -3 -19 -9 -51 -14 -70 -5 -19 -11 -48 -14 -65 -18
-97 -29 -155 -51 -265 -8 -41 -17 -91 -20 -110 -3 -19 -8 -42 -10 -50 -2 -8
-6 -26 -9 -40 -3 -14 -11 -53 -17 -87 -7 -35 -9 -66 -5 -70 8 -9 1052 -10
1060 -2 4 4 31 121 42 189 3 14 7 32 9 40 3 8 7 33 10 55 4 22 8 48 11 57 3
10 7 30 10 45 3 16 12 62 21 103 8 41 17 86 19 100 2 14 9 45 14 70 5 25 12
56 14 70 4 22 40 203 52 255 4 21 52 263 60 305 2 14 15 79 29 145 13 66 27
136 30 155 3 19 8 42 10 50 2 8 7 30 10 48 3 18 12 65 21 105 8 39 17 88 20
107 3 19 7 43 10 52 6 20 10 43 18 93 4 20 8 41 11 45 2 4 7 22 9 41 3 19 8
48 11 64 5 26 8 44 22 105 2 8 5 26 7 40 3 14 18 90 34 170 17 80 33 159 36
175 4 24 68 344 81 405 2 8 26 134 55 280 29 146 54 274 56 285 19 85 54 298
50 302 -2 3 -21 9 -42 13 -47 11 -1025 13 -1022 3z"/>
<path d="M4002 5398 c-7 -35 -15 -74 -18 -88 -3 -14 -14 -70 -25 -125 -11 -55
-22 -111 -25 -125 -32 -159 -144 -723 -149 -748 -3 -18 -12 -65 -21 -105 -8
-39 -17 -88 -20 -107 -3 -19 -8 -38 -10 -41 -2 -3 -6 -19 -8 -35 -7 -36 -44
-222 -50 -250 -2 -12 -7 -38 -10 -57 -3 -20 -15 -76 -25 -124 -11 -48 -22
-101 -25 -118 -3 -16 -26 -131 -51 -255 -45 -225 -49 -244 -60 -310 -3 -19 -8
-43 -11 -52 -3 -9 -7 -27 -9 -40 -3 -13 -7 -34 -10 -48 -3 -14 -7 -36 -10 -50
-3 -14 -9 -47 -15 -75 -6 -27 -12 -61 -15 -75 -3 -14 -14 -70 -24 -125 -11
-55 -22 -111 -25 -125 -2 -14 -9 -45 -15 -70 -5 -25 -12 -58 -15 -75 -3 -16
-8 -46 -11 -65 -3 -19 -12 -62 -20 -95 -7 -33 -16 -76 -19 -95 -3 -19 -13 -69
-22 -110 -9 -41 -18 -88 -20 -105 -2 -16 -7 -37 -10 -47 -2 -9 -7 -27 -9 -40
-14 -73 -25 -133 -25 -141 0 -9 1052 -3 1068 7 5 3 13 27 17 53 5 27 9 53 10
58 8 34 37 180 41 202 3 15 12 59 20 98 9 38 18 81 20 95 3 14 30 151 60 305
31 154 58 290 60 301 2 12 13 66 25 120 11 55 22 110 25 124 2 14 9 45 14 70
5 25 12 61 15 80 3 19 10 51 15 70 5 19 12 53 16 75 6 38 57 270 104 470 27
117 69 257 81 270 5 5 9 14 9 21 0 19 75 144 124 206 65 82 221 193 301 215 6
1 44 14 85 28 79 26 201 53 285 61 28 2 64 7 82 9 17 3 123 8 235 11 111 3
203 6 204 7 1 1 29 139 63 307 34 168 68 341 77 385 9 44 18 90 19 102 2 11 5
29 9 40 3 10 8 36 11 59 3 22 10 55 15 72 15 54 -1 60 -150 59 -72 0 -161 -6
-198 -13 -76 -15 -192 -51 -206 -65 -6 -5 -16 -9 -24 -9 -7 0 -46 -19 -85 -42
-264 -152 -482 -395 -646 -716 -62 -123 -94 -163 -112 -145 -9 9 -1 71 27 208
3 11 7 35 10 54 3 18 8 43 10 55 3 11 11 55 19 96 12 66 35 186 50 260 3 14 9
50 15 80 6 30 12 66 15 80 6 29 17 106 19 135 1 20 -6 20 -530 23 l-530 2 -12
-62z"/>
</g>
</svg>
